<svg width="24" height="24" viewBox="0 0 24 24" fill="none" xmlns="http://www.w3.org/2000/svg">
<path d="M5.30773 20.5C4.8026 20.5 4.37503 20.325 4.02503 19.975C3.67503 19.625 3.50003 19.1974 3.50003 18.6923V5.30772C3.50003 4.80259 3.67503 4.37502 4.02503 4.02502C4.37503 3.67502 4.8026 3.50002 5.30773 3.50002H6.69236V2.15384C6.69236 1.93463 6.76576 1.75162 6.91256 1.60482C7.05934 1.45804 7.24235 1.38464 7.46158 1.38464C7.6808 1.38464 7.86381 1.45804 8.01061 1.60482C8.15739 1.75162 8.23078 1.93463 8.23078 2.15384V3.50002H15.8077V2.13462C15.8077 1.9218 15.8795 1.7436 16.0231 1.60002C16.1666 1.45643 16.3448 1.38464 16.5577 1.38464C16.7705 1.38464 16.9487 1.45643 17.0923 1.60002C17.2359 1.7436 17.3077 1.9218 17.3077 2.13462V3.50002H18.6923C19.1974 3.50002 19.625 3.67502 19.975 4.02502C20.325 4.37502 20.5 4.80259 20.5 5.30772V18.6923C20.5 19.1974 20.325 19.625 19.975 19.975C19.625 20.325 19.1974 20.5 18.6923 20.5H5.30773ZM5.30773 19H18.6923C18.7692 19 18.8397 18.9679 18.9039 18.9038C18.968 18.8397 19 18.7692 19 18.6923V9.30772H5.00001V18.6923C5.00001 18.7692 5.03206 18.8397 5.09616 18.9038C5.16027 18.9679 5.2308 19 5.30773 19ZM5.00001 7.80774H19V5.30772C19 5.23079 18.968 5.16026 18.9039 5.09614C18.8397 5.03204 18.7692 4.99999 18.6923 4.99999H5.30773C5.2308 4.99999 5.16027 5.03204 5.09616 5.09614C5.03206 5.16026 5.00001 5.23079 5.00001 5.30772V7.80774Z" fill="black"/>
</svg>
