<svg width="24" height="24" viewBox="0 0 24 24" fill="none" xmlns="http://www.w3.org/2000/svg">
<path d="M9.94565 14.73L17.7156 6.95998C17.9556 6.71998 18.2356 6.59998 18.5556 6.59998C18.8756 6.59998 19.1557 6.71998 19.3957 6.95998C19.6357 7.19998 19.7556 7.48498 19.7556 7.81498C19.7556 8.14498 19.6357 8.42998 19.3957 8.66998L10.7856 17.31C10.5456 17.55 10.2656 17.67 9.94565 17.67C9.62565 17.67 9.34565 17.55 9.10565 17.31L5.14565 13.35C4.90565 13.11 4.79065 12.825 4.80065 12.495C4.81065 12.165 4.93565 11.88 5.17565 11.64C5.41565 11.4 5.70065 11.28 6.03065 11.28C6.36065 11.28 6.64565 11.4 6.88565 11.64L9.94565 14.73Z" fill="black"/>
</svg>
