<svg width="24" height="24" viewBox="0 0 24 24" fill="none" xmlns="http://www.w3.org/2000/svg">
<path d="M9.09035 11.9999L16.623 19.5326C16.8218 19.7314 16.9186 19.9653 16.9134 20.2346C16.9083 20.5038 16.8064 20.7377 16.6076 20.9365C16.4089 21.1352 16.175 21.2345 15.9058 21.2345C15.6365 21.2345 15.4026 21.1352 15.2039 20.9365L7.5327 13.2807C7.3519 13.0999 7.21792 12.8974 7.13075 12.673C7.04358 12.4486 7 12.2243 7 11.9999C7 11.7756 7.04358 11.5512 7.13075 11.3269C7.21793 11.1025 7.35192 10.9 7.5327 10.7192L15.2039 3.04804C15.4026 2.84932 15.6391 2.75252 15.9135 2.75764C16.1878 2.76277 16.4243 2.8647 16.623 3.06341C16.8218 3.26213 16.9211 3.4961 16.9211 3.76531C16.9211 4.03455 16.8218 4.26852 16.623 4.46724L9.09035 11.9999Z" fill="black"/>
</svg>
