<svg width="24" height="24" viewBox="0 0 24 24" fill="none" xmlns="http://www.w3.org/2000/svg">
<path d="M12 15.6615C11.8795 15.6615 11.7673 15.6423 11.6635 15.6038C11.5597 15.5653 11.4609 15.4993 11.3674 15.4057L6.87313 10.9115C6.73466 10.7731 6.66383 10.599 6.66063 10.3894C6.65741 10.1798 6.72824 10.0025 6.87313 9.85768C7.01799 9.71281 7.19363 9.64038 7.40003 9.64038C7.60643 9.64038 7.78206 9.71281 7.92693 9.85768L12 13.9308L16.0731 9.85768C16.2116 9.71923 16.3856 9.6484 16.5952 9.64518C16.8048 9.64198 16.9821 9.71281 17.1269 9.85768C17.2718 10.0025 17.3443 10.1782 17.3443 10.3846C17.3443 10.591 17.2718 10.7666 17.1269 10.9115L12.6327 15.4057C12.5391 15.4993 12.4404 15.5653 12.3366 15.6038C12.2327 15.6423 12.1205 15.6615 12 15.6615Z" fill="black"/>
</svg>
