<svg width="24" height="24" viewBox="0 0 24 24" fill="none" xmlns="http://www.w3.org/2000/svg">
<path fill-rule="evenodd" clip-rule="evenodd" d="M12.3457 11.6682V18.3756C12.3457 18.6087 12.157 18.7975 11.9238 18.7975C11.6906 18.7975 11.5019 18.6088 11.5019 18.3756V11.6682L6.16717 8.97758C5.95909 8.87283 5.87587 8.62026 5.98062 8.41219C6.08538 8.20411 6.33794 8.12089 6.54602 8.22564L11.9237 10.9386L17.3014 8.22564C17.5095 8.12088 17.762 8.20411 17.8668 8.41219C17.9716 8.61955 17.8883 8.87283 17.6802 8.97758L12.3457 11.6682ZM3.59998 9.11884V14.8812C3.59998 15.6238 3.79729 16.3162 4.16107 16.9066C4.52414 17.4971 5.05295 17.9836 5.71808 18.3187L10.1904 20.5745C10.7529 20.8587 11.3384 21 11.9246 21C12.5101 21 13.0963 20.8586 13.6589 20.5745L18.1312 18.3187C18.7956 17.9836 19.3251 17.4964 19.6882 16.9066C20.052 16.3161 20.2493 15.6244 20.2493 14.8812V9.11884C20.2493 8.3762 20.052 7.68453 19.6882 7.09336C19.3251 6.50286 18.7963 6.01637 18.1312 5.6813L13.6589 3.42548C13.0963 3.14134 12.5108 3 11.9246 3C11.3391 3 10.7529 3.14135 10.1904 3.42548L5.71808 5.6813C5.05366 6.01637 4.52414 6.50357 4.16107 7.09336C3.79729 7.68387 3.59998 8.37556 3.59998 9.11884Z" fill="currentColor"/>
</svg>
