<svg width="24" height="24" viewBox="0 0 24 24" fill="none" xmlns="http://www.w3.org/2000/svg">
<path d="M6.25 12.7499C6.0375 12.7499 5.85938 12.678 5.71563 12.5342C5.57188 12.3904 5.5 12.2122 5.5 11.9996C5.5 11.787 5.57188 11.609 5.71563 11.4654C5.85938 11.3218 6.0375 11.25 6.25 11.25C14.4362 11.25 10.1476 11.25 17.75 11.25C17.9625 11.25 18.1406 11.3219 18.2843 11.4657C18.4281 11.6095 18.5 11.7877 18.5 12.0003C18.5 12.2129 18.4281 12.391 18.2843 12.5346C18.1406 12.6782 17.9625 12.7499 17.75 12.7499C8.17901 12.7499 15.8209 12.7499 6.25 12.7499Z" fill="black"/>
</svg>
