<svg width="24" height="24" viewBox="0 0 24 24" fill="none" xmlns="http://www.w3.org/2000/svg">
<path d="M12 2.5C6.76139 2.5 2.5 6.76139 2.5 12C2.5 17.2386 6.76139 21.5 12 21.5C17.2386 21.5 21.5 17.2386 21.5 12C21.5 6.76139 17.2386 2.5 12 2.5ZM12 4.61111C13.3991 4.61111 14.704 5.0092 15.8205 5.68774C14.6573 5.81015 13.3485 5.87799 12 5.87799C10.6542 5.87799 9.34436 5.81028 8.17973 5.68761C9.29624 5.0092 10.601 4.61111 12 4.61111ZM6.13678 7.52188C7.75986 7.8194 9.79914 7.9891 12 7.9891C14.2047 7.9891 16.2423 7.81921 17.863 7.52156C18.1206 7.858 18.352 8.2146 18.5495 8.59277C17.2615 8.94847 14.9743 9.25598 12 9.25598C9.02571 9.25598 6.73904 8.94879 5.45032 8.59304C5.64791 8.21485 5.8792 7.85832 6.13678 7.52188ZM4.75059 10.5845C6.42425 11.0737 9.0404 11.3671 12 11.3671C14.9589 11.3671 17.5759 11.0739 19.2495 10.5848C19.3189 10.9409 19.3566 11.3075 19.3727 11.6797C18.6704 12.0572 16.1357 12.6329 12 12.6329C7.79298 12.6329 5.24435 12.0379 4.62639 11.6983C4.64179 11.3195 4.67998 10.9466 4.75059 10.5845ZM12 19.3889C10.3207 19.3889 8.77554 18.8192 7.53315 17.8717C8.86844 18.0323 10.3978 18.122 12 18.122C13.6046 18.122 15.1325 18.0331 16.465 17.873C15.223 18.8197 13.6784 19.3889 12 19.3889ZM18.5824 15.3392C17.1081 15.7548 14.6473 16.0109 12 16.0109C9.36292 16.0109 6.89257 15.754 5.41753 15.339C5.20068 14.9133 5.0246 14.4647 4.89285 13.9967C7.36803 14.6934 11.0544 14.744 12 14.744C12.9425 14.744 16.6317 14.6936 19.1067 13.9984C18.975 14.4658 18.7991 14.914 18.5824 15.3392Z" fill="currentColor"/>

</svg>
