<svg width="24" height="24" viewBox="0 0 24 24" fill="none" xmlns="http://www.w3.org/2000/svg">
<path d="M7 8C7.21281 8.00001 7.3906 8.07224 7.53418 8.21582C7.67776 8.3594 7.75 8.5372 7.75 8.75V15.25C7.74999 15.4628 7.67777 15.6406 7.53418 15.7842C7.3906 15.9278 7.21281 16 7 16C6.7872 16 6.6094 15.9277 6.46582 15.7842C6.32224 15.6406 6.25001 15.4628 6.25 15.25V8.75C6.25 8.53718 6.32224 8.3594 6.46582 8.21582C6.6094 8.07224 6.78718 8 7 8Z" fill="black"/>
<path fill-rule="evenodd" clip-rule="evenodd" d="M18.1797 4.50488C20.0292 4.59842 21.5 6.12727 21.5 8V16L21.4951 16.1797C21.4046 17.9697 19.9697 19.4046 18.1797 19.4951L18 19.5H6C4.12727 19.5 2.59842 18.0292 2.50488 16.1797L2.5 16V8C2.5 6.067 4.067 4.5 6 4.5H18L18.1797 4.50488ZM6 6C4.89543 6 4 6.89543 4 8V16C4 17.1046 4.89543 18 6 18H18C19.1046 18 20 17.1046 20 16V8C20 6.89543 19.1046 6 18 6H6Z" fill="black"/>
</svg>
