<svg width="24" height="24" viewBox="0 0 24 24" fill="none" xmlns="http://www.w3.org/2000/svg">
<path d="M9.16309 12.6442C8.95051 12.6442 8.77242 12.5723 8.62884 12.4286C8.48526 12.2848 8.41346 12.1067 8.41346 11.8942V5.36343L6.09611 7.68078C5.96086 7.81923 5.7918 7.88845 5.58891 7.88845C5.38603 7.88845 5.20703 7.81672 5.05191 7.67325C4.89678 7.51674 4.81921 7.33784 4.81921 7.13655C4.81921 6.93527 4.89678 6.75707 5.05191 6.60195L8.52114 3.13273C8.61472 3.03915 8.71386 2.97312 8.81856 2.93465C8.92326 2.89619 9.03545 2.87695 9.15511 2.87695C9.27476 2.87695 9.38843 2.89633 9.49611 2.93508C9.60381 2.97385 9.70381 3.03973 9.79611 3.13273L13.2903 6.62695C13.4391 6.77567 13.5125 6.9481 13.5105 7.14425C13.5086 7.3404 13.4301 7.51674 13.275 7.67325C13.1198 7.81672 12.9442 7.89102 12.7481 7.89615C12.5519 7.90129 12.3763 7.82629 12.2211 7.67115L9.91341 5.36343V11.9039C9.91341 12.1136 9.84151 12.2895 9.69771 12.4314C9.5539 12.5733 9.37569 12.6442 9.16309 12.6442ZM14.8448 21.1134C14.7252 21.1134 14.6115 21.0941 14.5038 21.0553C14.3961 21.0166 14.2961 20.9507 14.2038 20.8577L10.7096 17.3634C10.5609 17.2147 10.4875 17.0423 10.4894 16.8462C10.4913 16.65 10.5698 16.4737 10.725 16.3172C10.8801 16.1737 11.0557 16.0994 11.2519 16.0942C11.448 16.0891 11.6237 16.1641 11.7788 16.3192L14.0865 18.627V12.0866C14.0865 11.8768 14.1584 11.7009 14.3022 11.559C14.446 11.4171 14.6242 11.3462 14.8368 11.3462C15.0494 11.3462 15.2275 11.4181 15.3711 11.5618C15.5147 11.7056 15.5865 11.8837 15.5865 12.0962V18.627L17.9038 16.3096C18.0391 16.1712 18.2081 16.1019 18.411 16.1019C18.6139 16.1019 18.7929 16.1737 18.948 16.3172C19.1031 16.4737 19.1807 16.6526 19.1807 16.8538C19.1807 17.0551 19.1031 17.2333 18.948 17.3884L15.4788 20.8577C15.3852 20.9513 15.2861 21.0173 15.1814 21.0557C15.0767 21.0942 14.9645 21.1134 14.8448 21.1134Z" fill="black"/>
</svg>
