<svg width="24" height="24" viewBox="0 0 24 24" fill="none" xmlns="http://www.w3.org/2000/svg">
<path d="M10.7207 17.0092L6.99072 13.2792C6.81105 13.0994 6.67763 12.8973 6.59047 12.673C6.5033 12.4486 6.45972 12.2243 6.45972 12C6.45972 11.7756 6.5033 11.5513 6.59047 11.327C6.67763 11.1026 6.81105 10.9006 6.99072 10.7207L10.7207 6.99072C10.9005 6.81105 11.1026 6.67763 11.327 6.59047C11.5513 6.5033 11.7756 6.45972 12 6.45972C12.2243 6.45972 12.4486 6.5033 12.673 6.59047C12.8973 6.67763 13.0994 6.81105 13.2792 6.99072L17.0092 10.7207C17.1889 10.9006 17.3223 11.1026 17.4095 11.327C17.4966 11.5513 17.5402 11.7756 17.5402 12C17.5402 12.2243 17.4966 12.4486 17.4095 12.673C17.3223 12.8973 17.1889 13.0994 17.0092 13.2792L13.2792 17.0092C13.0994 17.1889 12.8973 17.3223 12.673 17.4095C12.4486 17.4966 12.2243 17.5402 12 17.5402C11.7756 17.5402 11.5513 17.4966 11.327 17.4095C11.1026 17.3223 10.9005 17.1889 10.7207 17.0092ZM12.2212 15.9287L15.9287 12.2212C15.9864 12.1635 16.0152 12.0898 16.0152 12C16.0152 11.9101 15.9864 11.8364 15.9287 11.7787L12.2212 8.07122C12.1635 8.01355 12.0898 7.98472 12 7.98472C11.9101 7.98472 11.8364 8.01355 11.7787 8.07122L8.07122 11.7787C8.01355 11.8364 7.98472 11.9101 7.98472 12C7.98472 12.0898 8.01355 12.1635 8.07122 12.2212L11.7787 15.9287C11.8364 15.9864 11.9101 16.0152 12 16.0152C12.0898 16.0152 12.1635 15.9864 12.2212 15.9287Z" fill="#1F1F1F"/>
</svg>
