<svg width="24" height="24" viewBox="0 0 24 24" fill="none" xmlns="http://www.w3.org/2000/svg">
<path fill-rule="evenodd" clip-rule="evenodd" d="M19 4C20.66 4 22 5.34 22 7V8.12988C22 8.60985 21.6602 8.98033 21.2002 9.11035C19.9302 9.46035 19 10.62 19 12C19 13.38 19.9302 14.5396 21.2002 14.8896C21.6602 15.0197 22 15.4001 22 15.8701V17C22 18.66 20.66 20 19 20H5C3.34 20 2 18.66 2 17V15.8701C2 15.3901 2.33985 15.0197 2.7998 14.8896C4.0698 14.5396 5 13.38 5 12C5 10.62 4.0698 9.46035 2.7998 9.11035C2.33985 8.98033 2 8.59985 2 8.12988V7C2 5.34 3.34 4 5 4H19ZM5 5.5C4.17 5.5 3.5 6.17 3.5 7V7.75977C5.28 8.37977 6.5 10.09 6.5 12C6.5 13.91 5.28 15.6102 3.5 16.2402V17C3.5 17.83 4.17 18.5 5 18.5H19C19.83 18.5 20.5 17.83 20.5 17V16.2402C18.72 15.6202 17.5 13.91 17.5 12C17.5 10.09 18.72 8.38977 20.5 7.75977V7C20.5 6.17 19.83 5.5 19 5.5H5Z" fill="black"/>
</svg>
