<svg width="92" height="24" viewBox="0 0 92 24" fill="none" xmlns="http://www.w3.org/2000/svg">
<path d="M91.9901 8.35767C91.9901 8.9362 91.9058 9.46979 91.7373 9.95845C91.5688 10.4415 91.2964 10.8599 90.9201 11.2138C90.5493 11.562 90.0663 11.8345 89.4709 12.031C88.8755 12.2276 88.151 12.3259 87.2972 12.3259H82.1073V15.9825H78.9815V4.40625H87.2972C88.151 4.40625 88.8755 4.50454 89.4709 4.70113C90.0663 4.8921 90.5493 5.16452 90.9201 5.51838C91.2964 5.86662 91.5688 6.28226 91.7373 6.7653C91.9058 7.24835 91.9901 7.77914 91.9901 8.35767ZM88.8306 8.40822C88.8306 8.13861 88.7913 7.90832 88.7126 7.71735C88.6396 7.52076 88.5161 7.36068 88.3419 7.23711C88.1678 7.11355 87.9403 7.02368 87.6595 6.96751C87.3787 6.90572 87.0332 6.87483 86.6232 6.87483H82.1073V9.85735H86.6232C87.0332 9.85735 87.3787 9.83488 87.6595 9.78995C87.9403 9.7394 88.1678 9.65795 88.3419 9.54562C88.5161 9.42766 88.6396 9.27601 88.7126 9.09066C88.7913 8.9053 88.8306 8.67782 88.8306 8.40822Z" fill="#1B1B1B"/>
<path d="M64.3335 4.40625V10.9273C64.3335 11.3598 64.37 11.753 64.443 12.1069C64.5161 12.4551 64.6509 12.7556 64.8475 13.0084C65.044 13.2555 65.3193 13.4493 65.6731 13.5897C66.027 13.7245 66.4876 13.7919 67.0549 13.7919C67.4817 13.7919 67.9283 13.7329 68.3945 13.615C68.8663 13.497 69.3325 13.3398 69.793 13.1432C70.2536 12.9466 70.6917 12.7219 71.1074 12.4692C71.5286 12.2108 71.905 11.944 72.2363 11.6688V4.40625H75.3537V15.9825H72.2363V14.3985C71.8432 14.6232 71.4247 14.8507 70.981 15.081C70.5373 15.3056 70.0655 15.5107 69.5656 15.696C69.0657 15.8757 68.5349 16.0218 67.9732 16.1341C67.4115 16.2521 66.8189 16.311 66.1955 16.311C65.4147 16.311 64.7155 16.2156 64.0976 16.0246C63.4798 15.8392 62.9574 15.5752 62.5305 15.2326C62.1036 14.8844 61.7751 14.4659 61.5448 13.9773C61.3201 13.483 61.2078 12.9325 61.2078 12.3259V4.40625H64.3335Z" fill="#1B1B1B"/>
<path d="M53.7159 10.0427L63.7129 20.4862H59.9636L51.8371 12.0816L48.2311 15.9825H44.4903L49.9751 10.0427L44.7599 4.40625H48.5091L51.8371 8.02908L55.1819 4.40625H58.9311L53.7159 10.0427Z" fill="black"/>
<path d="M39.302 15.9825V4.40625H42.4277V15.9825H39.302Z" fill="black"/>
<path d="M32.3091 6.92538V15.9825H29.1834V6.92538H24.2715V4.40625H37.2294V6.92538H32.3091Z" fill="black"/>
<path d="M7.35765 0.983955L9.37506 0L12.6549 6.72469L10.6375 7.70864L7.35765 0.983955Z" fill="#18675A"/>
<path d="M15.721 2.46122L17.7482 3.42501L14.5355 10.1821L12.5084 9.21828L15.721 2.46122Z" fill="#18675A"/>
<path d="M19.7816 9.92211L20.292 12.1079L13.006 13.8091L12.4957 11.6233L19.7816 9.92211Z" fill="#18675A"/>
<path d="M16.4822 17.7473L15.0915 19.5091L9.21874 14.8734L10.6094 13.1116L16.4822 17.7473Z" fill="#18675A"/>
<path d="M8.33317 23.9887L6.08863 23.9999L6.01922 12.5751L8.26376 12.5639L8.33317 23.9887Z" fill="#18675A"/>
<path d="M1.4082 15.0855L0 13.3377L5.82625 8.64367L7.23445 10.3915L1.4082 15.0855Z" fill="#18675A"/>
<path d="M0.985682 6.60253L1.47423 4.41177L8.77675 6.04026L8.28821 8.23102L0.985682 6.60253Z" fill="#18675A"/>
</svg>
