<svg preserveAspectRatio="none" overflow="visible" style="display: block;" width="20" height="20" viewBox="0 0 20 20" fill="none" xmlns="http://www.w3.org/2000/svg">
<g id="visibility_off">
<path id="Vector" d="M13.1442 10.8109L12.2083 9.875C12.3333 9.18482 12.1365 8.56436 11.6178 8.01362C11.0991 7.46287 10.4626 7.25 9.70833 7.375L8.77246 6.43913C8.96049 6.35472 9.15333 6.29142 9.35098 6.24923C9.54862 6.20702 9.76496 6.18592 10 6.18592C10.9455 6.18592 11.7481 6.51578 12.4078 7.1755C13.0676 7.83522 13.3974 8.63783 13.3974 9.58333C13.3974 9.81838 13.3763 10.0374 13.3341 10.2404C13.2919 10.4434 13.2286 10.6335 13.1442 10.8109ZM15.7949 13.4038L14.875 12.5417C15.4028 12.1389 15.8715 11.6979 16.2813 11.2188C16.691 10.7396 17.0417 10.1944 17.3333 9.58333C16.6389 8.18056 15.6424 7.06597 14.3438 6.23958C13.0451 5.41319 11.5972 5 10 5C9.59722 5 9.20139 5.02778 8.8125 5.08333C8.42361 5.13889 8.04167 5.22222 7.66667 5.33333L6.69554 4.36221C7.22225 4.15281 7.76017 3.99842 8.30931 3.89906C8.85845 3.7997 9.42201 3.75002 10 3.75002C11.8526 3.75002 13.5384 4.24094 15.0577 5.22277C16.5769 6.2046 17.7217 7.49039 18.492 9.08013C18.5283 9.14424 18.5534 9.22036 18.5673 9.3085C18.5812 9.39664 18.5881 9.48825 18.5881 9.58333C18.5881 9.67842 18.579 9.77003 18.5609 9.85817C18.5427 9.94631 18.5197 10.0224 18.492 10.0865C18.1832 10.7361 17.8026 11.3395 17.3501 11.8966C16.8977 12.4538 16.3793 12.9562 15.7949 13.4038ZM16.0289 17.7852L13.0962 14.8782C12.6688 15.0363 12.1953 15.1656 11.6755 15.266C11.1557 15.3664 10.5972 15.4166 10 15.4166C8.13676 15.4166 6.44953 14.9257 4.93831 13.9439C3.4271 12.9621 2.28368 11.6763 1.50804 10.0865C1.47172 10.0224 1.44662 9.94631 1.43273 9.85817C1.41884 9.77003 1.4119 9.67842 1.4119 9.58333C1.4119 9.48825 1.41884 9.39878 1.43273 9.31492C1.44662 9.23104 1.47172 9.15706 1.50804 9.09296C1.82108 8.45193 2.20036 7.85951 2.64587 7.31571C3.09139 6.7719 3.57056 6.28847 4.08337 5.8654L2.20196 3.97115C2.08657 3.85576 2.02754 3.71287 2.02487 3.54248C2.02221 3.37208 2.08551 3.22224 2.21477 3.09296C2.33549 2.97224 2.48186 2.91188 2.65387 2.91188C2.82587 2.91188 2.97224 2.97224 3.09296 3.09296L16.907 16.907C17.0224 17.0224 17.0836 17.1653 17.0905 17.3357C17.0975 17.5061 17.0363 17.656 16.907 17.7852C16.7863 17.906 16.64 17.9663 16.4679 17.9663C16.2959 17.9663 16.1496 17.906 16.0289 17.7852ZM4.96156 6.74356C4.5214 7.09399 4.09324 7.51521 3.6771 8.00721C3.26097 8.49919 2.92415 9.02457 2.66667 9.58333C3.36111 10.9861 4.35764 12.1007 5.65625 12.9271C6.95486 13.7535 8.40278 14.1667 10 14.1667C10.3793 14.1667 10.757 14.1346 11.133 14.0705C11.5091 14.0064 11.828 13.9402 12.0898 13.8718L11.0353 12.7916C10.8932 12.8493 10.7286 12.8953 10.5417 12.9295C10.3547 12.9637 10.1742 12.9807 10 12.9807C9.0545 12.9807 8.25189 12.6509 7.59217 11.9912C6.93244 11.3314 6.60258 10.5288 6.60258 9.58333C6.60258 9.41453 6.61968 9.23798 6.65387 9.05369C6.68807 8.86938 6.73401 8.70084 6.79169 8.54806L4.96156 6.74356Z" fill="#424242"/>
</g>
</svg>
