<svg width="55" height="32" viewBox="0 0 55 32" fill="none" xmlns="http://www.w3.org/2000/svg">
<path fill-rule="evenodd" clip-rule="evenodd" d="M0 18.2417C0 19.2474 0.0387518 19.9026 0.279374 20.8633C0.428974 21.4599 0.642559 22.0114 0.88949 22.5629C1.06432 22.9523 1.28512 23.3091 1.49961 23.6723C1.81773 24.2113 2.2395 24.6519 2.63512 25.1197C2.7649 25.2756 2.93973 25.399 3.07672 25.5414C3.17405 25.6451 3.27138 25.7163 3.38132 25.8073C3.4399 25.8596 3.46604 25.8848 3.53092 25.9371L4.03019 26.3066C4.59435 26.722 4.92599 26.8581 5.49645 27.1501C5.74338 27.2736 6.03537 27.3898 6.30754 27.4808C7.21595 27.799 8.18925 27.9738 9.17517 27.9999H9.71409C10.5964 27.9738 11.4723 27.8314 12.2897 27.552L13.2108 27.2015C13.9894 26.8644 14.924 26.293 15.5404 25.7154C15.7612 25.5081 15.9883 25.3197 16.1956 25.0989C16.2992 24.989 16.3902 24.8592 16.5074 24.7547C16.5849 24.8971 17.2599 25.5207 17.396 25.6243C18.0575 26.1633 18.8298 26.695 19.6283 27.0194L20.5042 27.3502C20.6664 27.4024 20.8088 27.4412 20.9783 27.4925L21.7046 27.6548C21.8083 27.6674 21.8993 27.6872 21.984 27.6935C24.0342 27.9981 26.1368 27.5376 27.9085 26.4868C28.0185 26.4219 28.0969 26.3633 28.2068 26.2984C28.4078 26.1813 28.5898 26.0326 28.7782 25.8965C28.8755 25.8253 28.9602 25.7604 29.044 25.6757C29.0963 25.6307 29.1216 25.6171 29.1738 25.5721L29.5694 25.2089L29.6019 25.1764L29.6145 25.1638L29.7317 25.0467C29.8227 24.943 29.9462 24.8457 30.03 24.7349C30.2372 24.4555 30.413 24.2743 30.6788 23.9175C30.75 23.8201 30.8086 23.7291 30.8735 23.6255C31.0033 23.4308 31.133 23.2298 31.2367 23.0154C31.2953 22.8919 31.3466 22.8144 31.4052 22.6972C31.6062 22.3016 32.0342 21.3283 32.0667 20.9255C32.1902 21.0678 32.3587 21.4509 32.4497 21.6194C32.5795 21.8528 32.6831 22.0997 32.8264 22.3268L34.3251 25.1494C34.3702 25.2467 34.4098 25.2918 34.4549 25.3828C34.6297 25.7334 34.8766 26.2462 35.0974 26.5382C35.3119 26.8238 35.5453 27.0311 35.8563 27.2195C36.7322 27.7449 37.9065 27.6539 38.6987 27.0311C38.7762 26.9725 38.8347 26.9212 38.8996 26.8563C39.0294 26.7265 39.1592 26.5904 39.2565 26.4282C39.4836 26.0587 39.7432 25.4874 39.9315 25.1755C39.9838 25.0845 40.0162 25.0196 40.0613 24.9286L40.73 23.6696C40.7822 23.566 40.8273 23.5011 40.8724 23.4101C41.1644 22.8198 41.5014 22.2358 41.8069 21.6518L42.2224 20.8795C42.5856 20.2108 42.9235 19.5295 43.2993 18.8617L44.1041 17.3369C44.1564 17.2458 44.1888 17.1873 44.2402 17.0899C44.2924 16.9863 44.3312 16.934 44.3826 16.8304L44.6547 16.3176C44.707 16.2329 44.7394 16.1554 44.7845 16.0644L46.2643 13.2868C46.7248 12.4496 46.686 11.4763 46.2057 10.6652C46.1534 10.5742 46.1147 10.5355 46.0561 10.4507L45.8488 10.2173C45.8164 10.1849 45.8362 10.2047 45.8038 10.1786L45.5118 9.93886C45.291 9.77034 45.0513 9.67301 44.7854 9.5883C44.4222 9.46483 43.9482 9.45221 43.5462 9.52972C42.9686 9.64687 42.5729 9.91273 42.1836 10.2885C42.08 10.3922 41.9439 10.5742 41.8718 10.6977L41.5086 11.3916C41.4699 11.4691 41.4239 11.5412 41.3852 11.625C41.3077 11.7809 41.2292 11.9431 41.1454 12.1054L38.258 17.7379C38.2192 17.8154 38.1733 17.8938 38.1345 17.9713L37.9011 18.4318C37.875 18.4769 37.8687 18.4967 37.8425 18.5418C37.8227 18.5805 37.8299 18.5679 37.8164 18.6003C37.7966 18.6328 37.8038 18.6328 37.7839 18.6715C37.5568 19.0735 37.3423 19.4628 37.2324 19.917L37.1738 20.1117C37.1738 20.118 37.1675 20.1378 37.1612 20.1441C37.1414 20.1892 37.1549 20.1639 37.1414 20.1829C37.0828 19.9233 37.0116 19.6376 36.8881 19.3979C36.8494 19.3204 36.8106 19.242 36.7647 19.1582L32.5669 10.9825C32.5407 10.9374 32.5344 10.9239 32.5083 10.8725C32.1577 10.1714 31.3791 9.57478 30.5229 9.48376C30.4319 9.47745 30.2571 9.45131 30.1859 9.45762C29.2324 9.53512 28.4339 9.9641 27.986 10.8004C27.6553 11.4168 27.603 12.0855 27.7914 12.7596C27.9148 13.2075 28.3303 13.8564 28.5574 14.3043C28.6025 14.3953 28.6421 14.4602 28.6935 14.5512L29.6343 16.323H24.9499C24.2487 16.323 23.6134 16.3753 23.133 16.8547C22.9186 17.0692 22.7635 17.2377 22.6266 17.5162C22.0552 18.6517 22.5617 20.1117 23.7558 20.5659C24.2298 20.7479 24.6768 20.7083 25.3067 20.7083H27.0262C26.9487 20.8507 26.8316 21.0066 26.7279 21.13C26.2999 21.623 26.1566 21.7789 25.5726 22.1556C25.5275 22.188 25.514 22.1944 25.469 22.2205C25.4239 22.2403 25.3978 22.2592 25.3455 22.2854C24.2424 22.8495 22.6653 22.9406 21.5622 22.3827C21.2252 22.2142 20.9071 22.0258 20.6277 21.7726C20.3483 21.5257 20.1086 21.2472 19.8878 20.9417C19.8166 20.838 19.758 20.7344 19.6931 20.6236C19.0893 19.5727 18.9533 18.184 19.3426 17.0286C19.4075 16.8403 19.466 16.6718 19.5435 16.5096L19.9527 15.8156C20.1473 15.5299 20.3943 15.2839 20.6538 15.0568C20.9846 14.7585 21.3739 14.5377 21.7893 14.3692C22.6915 14.006 22.8861 14.252 23.7359 13.3959C23.8594 13.2724 23.9504 13.1102 24.0406 12.9615C24.4173 12.3451 24.4623 11.3718 24.1505 10.7229C24.0207 10.4507 23.8585 10.2038 23.6512 9.98933L23.5737 9.91814C23.3989 9.76223 23.2232 9.61353 23.0096 9.50899C21.9516 8.97728 20.661 9.39904 19.6553 9.82711L18.7793 10.2687C18.208 10.613 17.7736 10.9113 17.2608 11.3592C17.0463 11.5412 16.7615 11.7935 16.5993 12.008L16.4173 12.209C16.073 12.6181 15.7558 13.0327 15.4764 13.4941C15.3403 13.7212 15.2295 13.9159 15.1069 14.1628C14.4779 15.4155 14.0949 16.7709 14.0949 18.4066C14.0949 18.8671 14.1273 19.3087 14.1859 19.7368C14.1922 19.7818 14.2246 19.944 14.2246 19.9963C14.2183 20.1135 14.0363 20.3334 13.9651 20.4379L13.044 21.5284L12.6547 21.8591C12.6025 21.8979 12.5574 21.9366 12.4988 21.9826C12.4339 22.0276 12.3889 22.0538 12.324 22.106C11.6814 22.5729 10.5847 22.9883 9.74834 22.9883C9.4951 22.9883 9.21663 23.0081 8.95708 22.9757C8.85344 22.9631 8.79486 22.9559 8.69123 22.9433C8.40554 22.8982 8.04236 22.7937 7.79543 22.69C6.75724 22.2619 5.92002 21.4833 5.43337 20.4776C4.76467 19.0825 4.88183 17.4802 5.66678 16.1626C6.02997 15.5525 6.56258 15.0469 7.17179 14.6765L7.74946 14.3845L8.39202 14.1772C8.61282 14.1123 8.86606 14.0862 9.11209 14.0538C9.77357 13.9564 10.2674 14.0087 10.819 13.6194C10.8577 13.5933 10.8965 13.5608 10.9424 13.5284C11.4678 13.1003 11.9031 12.4451 11.9031 11.6917C11.9031 11.1276 11.8319 10.7184 11.5661 10.2705C11.5273 10.2056 11.5012 10.1534 11.4489 10.0885C11.1695 9.71897 10.8848 9.47204 10.4495 9.26476C9.50231 8.80425 7.9252 9.13499 7.03661 9.34227L6.37513 9.54324C6.21922 9.59551 6.10296 9.64057 5.95967 9.69914C5.81638 9.75772 5.68751 9.8163 5.54422 9.87398C5.02512 10.0885 4.53216 10.4057 4.07165 10.7112C3.61113 11.0167 3.19567 11.3862 2.80635 11.7755C2.60538 11.9765 2.42965 12.145 2.25482 12.3658C1.82043 12.9047 1.40498 13.4626 1.09316 14.0853C1.05441 14.1628 1.02197 14.2088 0.989523 14.28C0.950772 14.3647 0.930945 14.4097 0.898502 14.4809L0.561451 15.292C0.220795 16.1914 0.00630844 17.2485 0.00630844 18.2417H0Z" fill="white"/>
<path fill-rule="evenodd" clip-rule="evenodd" d="M51.1834 9.78642L51.1897 9.74136C51.0798 9.71522 50.9428 9.65664 50.8392 9.61789C50.3913 9.44937 50.5535 9.44937 50.1191 9.61158C50.0091 9.65034 49.8532 9.6963 49.7622 9.74136V9.12493L48.8087 8.59322L48.7439 8.58691C48.5041 8.69686 47.7255 8.9501 47.5696 9.03481C46.8036 9.46289 47.3163 10.702 48.2311 10.3325L49.4189 9.89096C49.4964 9.86482 49.6523 9.78732 49.737 9.78101C49.737 10.0604 49.7045 10.8255 49.7496 11.04C49.8596 11.5654 50.4895 11.806 50.9302 11.4555C51.0473 11.3644 51.1447 11.2157 51.1834 11.0463C51.2159 10.8967 51.242 9.9234 51.1834 9.7747V9.78732V9.78642Z" fill="white"/>
<path fill-rule="evenodd" clip-rule="evenodd" d="M50.4688 6.52337V6.60809L50.8455 7.6661C50.9428 7.65979 51.5331 7.30923 51.6628 7.23172C51.7277 7.19297 51.7277 7.14701 51.7539 7.2119C51.7989 7.1407 51.7412 7.17945 51.8124 7.11457L52.5064 5.13552C52.565 4.96699 52.6037 4.91472 52.5974 4.70114C52.5974 4.31813 52.3117 4.05227 51.9873 4H51.7602C51.6178 4.02613 51.4808 4.09102 51.3645 4.20728C51.2483 4.32353 51.2348 4.36949 51.1699 4.53802L50.4688 6.52337Z" fill="white"/>
<path fill-rule="evenodd" clip-rule="evenodd" d="M49.1316 7.12628L49.1704 7.18486L49.8517 7.56156C49.9364 7.61383 50.0076 7.63907 50.0788 7.69134L50.4618 6.60809V6.52337L49.904 4.93365C49.7868 4.60291 49.6967 4.10995 49.2353 4.01262C49.2154 4.00631 49.1902 4.00631 49.1704 4H48.9496C48.6251 4.04506 48.353 4.29199 48.3268 4.68762C48.3142 4.8949 48.4828 5.31035 48.5603 5.51132C48.6639 5.78349 48.7423 6.05024 48.8396 6.30979C48.8919 6.43956 48.9307 6.56934 48.9757 6.69911C49.0018 6.77661 49.0145 6.82888 49.0469 6.90639C49.0793 6.9911 49.0992 7.02985 49.1181 7.12087L49.1307 7.12718L49.1316 7.12628Z" fill="white"/>
<path fill-rule="evenodd" clip-rule="evenodd" d="M51.8185 7.11357C51.7473 7.17845 51.8059 7.1397 51.76 7.2109L51.377 8.30136L52.143 8.58704H52.2079L53.7913 7.67862C54.0707 7.52272 54.4789 7.31544 54.3626 6.7639C54.2716 6.34844 53.8499 6.12134 53.4542 6.21867C53.3118 6.25742 52.371 6.81527 52.1565 6.93243C52.0393 6.99731 51.942 7.0622 51.8258 7.11447H51.8194L51.8185 7.11357Z" fill="white"/>
<path fill-rule="evenodd" clip-rule="evenodd" d="M48.7506 8.59384L48.8155 8.60015C48.893 8.53526 49.4644 8.36043 49.5815 8.30185C49.5428 8.21713 49.5167 8.1135 49.4842 8.02247L49.2832 7.45832C49.2571 7.37361 49.2184 7.25735 49.1796 7.17895L49.1409 7.12037L48.1802 6.56883C48.0955 6.52377 47.6223 6.2444 47.5313 6.21826C47.4141 6.18582 47.187 6.18582 47.0708 6.23088C46.85 6.30838 46.6292 6.52918 46.5967 6.77611C46.5057 7.43759 47.0059 7.57458 47.479 7.85936L48.4397 8.40459C48.5109 8.44334 48.7119 8.54698 48.7578 8.58663L48.7515 8.59294L48.7506 8.59384Z" fill="white"/>
<path fill-rule="evenodd" clip-rule="evenodd" d="M51.1884 9.74128L51.1821 9.78634C51.2794 9.79265 51.6886 9.95487 51.7985 10.0008C51.8958 10.0396 51.9869 10.072 52.0905 10.1108L52.6871 10.3379C53.0242 10.474 53.3558 10.4091 53.5757 10.1306C53.8677 9.76111 53.7316 9.23481 53.3684 9.04014C53.2774 8.99508 53.1801 8.96264 53.0764 8.92299L52.1941 8.58594H52.1293L51.1758 9.12486L51.1821 9.74128H51.1884Z" fill="white"/>
</svg>
