<svg width="129" height="32" viewBox="0 0 129 32" fill="none" xmlns="http://www.w3.org/2000/svg">
<path d="M12.5101 20.2115L11.8751 20.529L11.4501 20.8465L10.0726 21.059H8.58759L12.0851 10.5947H14.4176L15.0526 10.6997L15.4776 11.0171L15.7951 11.3346V12.2871L15.6901 13.3445L15.3727 14.8244L14.8298 16.1943L13.6623 18.7316L13.0273 19.5765L12.5101 20.2115ZM22.6852 9.00979L21.9426 8.37481L20.9876 7.95235L20.0351 7.6323L19.0801 7.42235L17.5951 7.31737L16.9601 7.10742L5.93502 7.31737L0 24.4387H10.0701L10.8126 24.3337L12.8276 24.1238L15.1601 23.7013L16.3251 23.3838L17.3851 22.8564L18.1276 22.329L18.9751 21.694L19.7177 20.849L20.5651 19.8991L21.6252 17.8918L22.3677 15.6719L23.0027 13.5571L23.2152 11.6547V10.0647L23.0027 9.42969L22.6852 9.00979Z" fill="white"/>
<path d="M36.7828 11.9672L36.3603 13.552L35.6178 16.1944L34.3376 18.8367L33.7026 20.1169L33.0676 20.8569L32.5376 21.1743L32.0076 21.3843L31.4776 21.4893L30.8426 21.3843L30.4176 21.0668L30.1001 20.7493L29.7826 20.2219V19.7994L29.8876 19.0595L30.2051 17.7793L31.3701 14.8194L32.5351 12.0721L33.17 11.0147L33.7 10.5922L34.1251 10.2747L34.6551 10.0622H35.29L35.7151 10.2747L36.1401 10.5922L36.4576 10.9097L36.7751 11.3322L36.7828 11.9672ZM43.3579 9.7473L42.9303 9.00735L42.1903 8.37237L41.2353 7.9499L40.0703 7.63242L39.0077 7.31493L37.9503 7.10498L36.0428 7L34.0278 7.10498L31.6952 7.63242L30.415 7.9499L29.1348 8.47734L27.8546 9.11232L26.7946 9.95725L25.6271 11.0147L24.8154 12.6021L23.8604 14.292L23.2229 16.1944L22.6929 18.0967L22.5879 19.889V20.7339L22.6929 21.3689L22.9054 22.1089L23.2229 22.5313L23.9654 23.3763L24.9204 23.7987L25.8755 24.1162L26.9355 24.4337L28.9505 24.6462H30.5405L32.023 24.4337L33.7205 24.3287L35.4155 24.0112L37.0055 23.3763L37.9605 22.8488L38.913 22.3214L39.6581 21.4765L40.398 20.524L41.243 19.5715L41.6706 18.7266L42.833 16.6117L43.3656 14.6044L43.683 12.702V10.3772L43.3579 9.7473Z" fill="white"/>
<path d="M57.6659 11.9672L57.2434 13.552L56.3985 16.1944L55.3359 18.8367L54.4859 20.1169L53.9559 20.8569L53.4259 21.1743L52.7909 21.3843L52.3633 21.4893L51.7283 21.3843L51.1983 21.0668L50.8808 20.7493L50.7707 20.2219L50.5582 19.7994L50.7707 19.0595L51.0933 17.7793L52.1508 14.8194L53.431 12.0721L54.066 11.0147L54.4884 10.5922L55.021 10.2747L55.656 10.0622H56.0785L56.611 10.2747L57.0335 10.5922L57.351 10.9097L57.6685 11.3322L57.6659 11.9672ZM64.451 9.7473L63.8134 9.00735L62.9659 8.37493L62.0135 7.95247L61.1736 7.63242L60.0061 7.31493L58.9487 7.10498L56.9362 7L55.0287 7.10498L52.4683 7.63242L51.1881 7.9499L50.0205 8.47734L48.7403 9.11232L47.5779 9.95725L46.5153 11.0147L45.5629 12.5996L44.6078 14.2894L43.9729 16.1918L43.5504 18.0942L43.3379 19.8865V20.7314L43.5504 21.3664L43.6554 22.1063L43.9729 22.5288L44.8178 23.3737L45.7728 23.7962L46.7253 24.1137L47.7879 24.4312L49.8003 24.6437H51.3904L52.7704 24.4312L54.4628 24.3262L56.2551 24.0087L57.7401 23.3737L58.6952 22.8463L59.6477 22.3188L60.6027 21.4739L61.2377 20.5214L61.9827 19.569L62.6177 18.724L63.5702 16.6092L64.2077 14.6018L64.5252 12.6994V10.3746L64.451 9.7473Z" fill="white"/>
<path d="M84.163 12.2847V11.9672V11.0173L83.9505 10.3823L83.8455 9.7473L83.528 9.11488L83.1056 8.47991L82.2555 8.05744L81.5156 7.73995L80.6681 7.42246L79.713 7.31749L78.0155 7H76.638L75.2631 7.10498L73.353 7.31749L71.3405 7.73995L70.3855 8.05744L69.538 8.37493L68.053 9.42981L67.4154 10.0648L66.8854 10.6998L66.463 11.5447L66.1455 12.3896L65.933 13.3421L66.1455 14.5045L66.2504 14.927L66.5679 15.2445L66.8854 15.6669L67.4154 15.9844L68.583 16.5119L69.8555 16.9343L72.5029 17.5693L73.4605 17.8868L74.3055 18.4142L74.623 19.0492L74.7279 19.5767V20.1041L74.413 20.5291L73.988 21.0566L73.353 21.374L72.7155 21.6915H72.0805L71.3405 21.479L70.7004 21.374L70.3855 20.844L70.068 20.5291V19.5767V19.2592H63.1754L62.9629 20.4216V21.374L63.2804 22.114L63.8104 22.854L64.5555 23.3814L65.2954 23.8039L66.2504 24.1214L68.4754 24.4388H70.7004H72.7155L74.623 24.3313L76.4255 23.8039L78.228 23.3814L78.9731 22.854L79.923 22.4315L80.6681 21.7965L81.303 21.1615L81.833 20.4216L82.2555 19.4717L82.4655 18.4142L82.2555 17.2518L82.1505 16.8293L81.833 16.2993L81.303 15.8769L80.8806 15.562L79.6081 14.927L78.0155 14.5045L75.2631 13.552L74.0955 13.0246L73.6705 12.7071L73.4605 12.3896L73.353 11.9672V11.5447L73.4605 11.2272L73.778 10.6998L74.0955 10.3823L74.7279 10.0648L75.2631 9.95981H76.003L76.638 10.0648L77.0656 10.3823L77.3805 10.9097L77.593 11.2272L77.698 11.9672V12.2847H84.163Z" fill="white"/>
<path d="M109.498 7.31738L103.775 24.3312H110.45L114.055 14.2919L115.01 24.1212L123.488 24.3312L129 7.31738L122.221 7.42236L118.825 16.8292L117.87 7.31738H109.498Z" fill="white"/>
<path d="M91.7943 17.7822L96.0369 11.3351L95.7194 17.7822H91.7943ZM102.607 24.1243L101.972 7.63281H92.9619L80.0293 24.3317L87.8718 24.1217L89.9944 21.1619H95.3968L95.2918 24.1217L102.607 24.1243Z" fill="white"/>
</svg>
