<svg width="68" height="32" viewBox="0 0 68 32" fill="none" xmlns="http://www.w3.org/2000/svg">
<path fill-rule="evenodd" clip-rule="evenodd" d="M10.084 5C4.51558 5 0 8.56675 0 12.9673C0 15.6073 1.6297 17.9447 4.13416 19.3947L2.94734 23.8283C2.83386 24.2538 3.30827 24.5911 3.67393 24.3468L8.82468 20.8699C9.2392 20.9109 9.65845 20.9345 10.0856 20.9345C15.6556 20.9345 20.1696 17.3678 20.1696 12.9688C20.1696 8.56991 15.654 5 10.084 5ZM29.1014 8.81105V17.5254C29.3158 17.5522 29.8485 17.6058 30.3544 17.6058C33.1253 17.6058 34.1923 15.6609 34.1923 12.5953C34.1923 9.9033 33.472 8.27832 31.2607 8.27832C30.5404 8.27832 29.7413 8.4911 29.1014 8.81105ZM29.1014 20.2442V25.666H25.2116V5.55952H27.9556L28.4347 6.83933C29.2606 6.01344 30.5136 5.13397 32.5389 5.13397C36.35 5.13397 38.1609 7.98517 38.1357 12.5969C38.1357 17.4198 35.3381 20.5121 31.3395 20.5121C30.5672 20.5121 29.9825 20.4586 29.1014 20.2458M48.2103 16.3717V13.7065H46.4245C44.426 13.7065 43.4126 14.4268 43.4126 15.8658C43.4126 16.958 43.9721 17.4923 45.1179 17.4923C46.1834 17.4923 47.5436 16.958 48.2103 16.3717ZM45.9974 11.2272H48.2103V10.7481C48.2103 9.14834 47.304 8.40126 45.731 8.40126C44.5332 8.40126 42.987 8.74801 41.734 9.36112L40.667 6.74949C42.054 5.78963 44.1849 5.12294 46.0762 5.12294C49.8085 5.12294 51.8338 7.09466 51.8338 10.8521V20.1008H49.0882L48.6878 18.8746C47.1164 20.0204 45.6774 20.5011 44.3708 20.5011C41.5197 20.5011 39.9215 18.7958 39.9215 15.9178C39.9215 12.8522 42.054 11.2272 45.9974 11.2272ZM63.4434 18.8588C62.0848 22.4839 60.4583 25.1207 58.0862 26.5865L55.6889 24.3736C57.0744 23.1742 58.0594 22.0016 58.9121 20.4302L53.7424 6.33182L57.6071 5.29316L60.9106 16.7263L64.1889 5.23957L68 6.3066L63.4419 18.8588H63.4434Z" fill="white"/>
</svg>
