<svg width="72" height="32" viewBox="0 0 72 32" fill="none" xmlns="http://www.w3.org/2000/svg">
<path d="M71.9555 9.71387C70.9765 4.06992 54.0858 2.30862 34.2275 5.77974C25.8877 7.23825 18.3573 9.38948 12.493 11.8096C13.3939 11.8295 14.0619 12.0368 14.4679 12.4433C14.7852 12.7623 14.9455 13.2001 14.9455 13.7456V14.3054H12.9983V13.8111C12.9983 13.3992 12.7523 13.1439 12.3166 13.1439C11.9505 13.1439 11.7249 13.3099 11.6521 13.6368C11.6277 13.7661 11.6304 13.899 11.66 14.0271C11.8683 14.8822 14.7598 15.4133 15.0743 16.9913C15.1155 17.1944 15.1715 17.6289 15.0833 18.2507C14.9029 19.5235 13.789 20.0145 12.3711 20.0145C10.3919 20.0145 9.58795 19.0734 9.58795 17.7758L9.58939 17.162H11.6768L11.6779 17.9267C11.6779 18.3566 11.9892 18.5938 12.4131 18.5938C12.8147 18.5938 13.0492 18.4315 13.1303 18.0995C13.1679 17.9468 13.1844 17.7218 13.1159 17.5497C12.7297 16.5769 10.0298 16.1225 9.69733 14.5495C9.6231 14.196 9.617 13.895 9.67868 13.5144C9.71033 13.3258 9.76852 13.1426 9.85153 12.9704C3.34675 16.0246 -0.458435 19.3852 0.0443323 22.2867C1.02441 27.9314 17.9148 29.6909 37.7727 26.2198C46.5019 24.6943 54.3497 22.4106 60.3223 19.8514C60.2359 19.8558 60.152 19.8651 60.0623 19.8651C58.7032 19.8651 57.4897 19.3539 57.3638 17.9591C57.3415 17.7053 57.3376 17.5991 57.3369 17.4543L57.3376 14.2478C57.3376 14.1096 57.3537 13.8669 57.3692 13.7416C57.5302 12.3936 58.5917 11.8377 60.063 11.8377C61.2016 11.8377 62.5977 12.1657 62.7511 13.7427C62.7716 13.9407 62.7694 14.1521 62.7691 14.2215V14.5243H60.8025V14.0725C60.8025 14.0628 60.7996 13.8939 60.7781 13.7884C60.7458 13.6275 60.6092 13.2545 60.049 13.2545C59.4957 13.2545 59.3523 13.6282 59.3164 13.7888C59.296 13.877 59.2863 14.0037 59.2863 14.1441V17.6289C59.2845 17.7499 59.2906 17.8446 59.3028 17.9141C59.3125 17.9688 59.4118 18.4491 60.0558 18.4491C60.6952 18.4491 60.7942 17.9688 60.8032 17.9141C60.82 17.8198 60.8222 17.7074 60.8215 17.6289V16.5492H60.0476V15.3863H62.7841V17.455C62.7834 17.5958 62.7813 17.6999 62.7576 17.9591C62.7246 18.3249 62.6098 18.6345 62.4298 18.8991C68.7639 15.8795 72.4518 12.5733 71.9555 9.71387ZM20.4638 19.7168L19.4676 12.9207H19.4317L18.4101 19.7168H16.3104L17.7226 12.0419H21.1484L22.552 19.7168H20.4638ZM30.5629 19.7168L30.5166 13.0521H30.4829L29.2475 19.7168H27.277L26.0477 13.0521H26.0125L25.9677 19.7168H24.0151L24.1844 12.0419H27.325L28.2395 17.7431H28.2843L29.2013 12.0419H32.3405L32.5091 19.7168H30.5629ZM39.758 18.2295C39.5478 19.7161 38.0972 19.976 37.072 19.976C35.3697 19.976 34.3168 19.2455 34.3168 17.7589L34.3179 17.1526H36.3802L36.3817 17.908C36.3817 18.318 36.6696 18.569 37.1143 18.569C37.5109 18.569 37.7433 18.4091 37.824 18.0808C37.8613 17.9278 37.8767 17.7045 37.8107 17.536C37.4306 16.5816 34.7518 16.1139 34.4262 14.5654C34.3516 14.2143 34.3462 13.9162 34.4075 13.5396C34.6342 12.1358 35.9761 11.8442 37.0562 11.8442C38.0223 11.8442 38.7255 12.0559 39.1472 12.4793C39.4617 12.7954 39.621 13.2293 39.621 13.769V14.3227H37.6924V13.8341C37.6924 13.4158 37.4338 13.1738 37.0182 13.1738C36.6495 13.1738 36.4265 13.3384 36.3533 13.662C36.3296 13.7899 36.3328 13.9214 36.3627 14.048C36.5692 14.8991 39.4352 15.4194 39.749 16.9827C39.7895 17.1821 39.8451 17.6102 39.758 18.2295ZM46.9007 17.5321C46.9036 17.6761 46.8896 17.9638 46.8817 18.0376C46.7641 19.302 45.8632 19.9447 44.2111 19.9447C42.5526 19.9447 41.651 19.302 41.5341 18.0376C41.5209 17.8699 41.5145 17.7017 41.5151 17.5335V12.0401H43.4882V17.7067C43.486 17.8334 43.4925 17.927 43.505 17.9922C43.5294 18.1182 43.6542 18.5272 44.2111 18.5272C44.7663 18.5272 44.8911 18.1179 44.9172 17.9937C44.9284 17.9267 44.9352 17.8284 44.9352 17.7063V12.0401H46.9007V17.5321ZM55.4015 19.6387H52.656L50.8131 13.5594H50.7823L50.8845 19.6387H48.9709V12.0419H51.8315L53.5349 17.8817H53.5747L53.474 12.0419H55.4015V19.6387Z" fill="white"/>
</svg>
