<svg width="14" height="15" viewBox="0 0 14 15" fill="none" xmlns="http://www.w3.org/2000/svg">
<path fill-rule="evenodd" clip-rule="evenodd" d="M7.28809 7.22348V12.813C7.28809 13.0073 7.13084 13.1645 6.93651 13.1645C6.74217 13.1645 6.58492 13.0073 6.58492 12.813V7.22348L2.13933 4.98132C1.96593 4.89402 1.89657 4.68355 1.98387 4.51016C2.07117 4.33676 2.28164 4.26741 2.45503 4.3547L6.93644 6.61553L11.4179 4.3547C11.5913 4.2674 11.8017 4.33676 11.889 4.51016C11.9763 4.68296 11.907 4.89402 11.7336 4.98132L7.28809 7.22348ZM0 5.09903V9.90097C0 10.5198 0.164427 11.0968 0.467581 11.5889C0.770138 12.081 1.21081 12.4864 1.76509 12.7656L5.49202 14.6454C5.9608 14.8822 6.4487 15 6.93721 15C7.42512 15 7.91362 14.8822 8.3824 14.6454L12.1093 12.7656C12.663 12.4864 13.1043 12.0804 13.4068 11.5889C13.71 11.0968 13.8744 10.5204 13.8744 9.90097V5.09903C13.8744 4.48017 13.71 3.90377 13.4068 3.41113C13.1043 2.91905 12.6636 2.51364 12.1093 2.23441L8.3824 0.35457C7.91362 0.117787 7.42571 0 6.93721 0C6.4493 0 5.9608 0.117791 5.49202 0.35457L1.76509 2.23441C1.21141 2.51364 0.770138 2.91964 0.467581 3.41113C0.164427 3.90322 0 4.47964 0 5.09903Z" fill="#18675A"/>
</svg>
