<svg width="256" height="46" viewBox="0 0 256 46" fill="none" xmlns="http://www.w3.org/2000/svg">
<rect x="8" y="4" width="240" height="38" rx="8" fill="#EEEEEE"/>
<path fill-rule="evenodd" clip-rule="evenodd" d="M30.2881 22.7235V28.313C30.2881 28.5073 30.1308 28.6645 29.9365 28.6645C29.7422 28.6645 29.5849 28.5073 29.5849 28.313V22.7235L25.1393 20.4813C24.9659 20.394 24.8966 20.1836 24.9839 20.0102C25.0712 19.8368 25.2816 19.7674 25.455 19.8547L29.9364 22.1155L34.4179 19.8547C34.5913 19.7674 34.8017 19.8368 34.889 20.0102C34.9763 20.183 34.907 20.394 34.7336 20.4813L30.2881 22.7235ZM23 20.599V25.401C23 26.0198 23.1644 26.5968 23.4676 27.0889C23.7701 27.581 24.2108 27.9864 24.7651 28.2656L28.492 30.1454C28.9608 30.3822 29.4487 30.5 29.9372 30.5C30.4251 30.5 30.9136 30.3822 31.3824 30.1454L35.1093 28.2656C35.663 27.9864 36.1043 27.5804 36.4068 27.0889C36.71 26.5968 36.8744 26.0204 36.8744 25.401V20.599C36.8744 19.9802 36.71 19.4038 36.4068 18.9111C36.1043 18.419 35.6636 18.0136 35.1093 17.7344L31.3824 15.8546C30.9136 15.6178 30.4257 15.5 29.9372 15.5C29.4493 15.5 28.9608 15.6178 28.492 15.8546L24.7651 17.7344C24.2114 18.0136 23.7701 18.4196 23.4676 18.9111C23.1644 19.4032 23 19.9796 23 20.599Z" fill="#18675A"/>
<path d="M57.6354 17.442H62.5635V18.5801H51.1657V17.442H56.1602V16.1436H57.6354V17.442ZM57.6354 23.9834H63.2818V25.1602H50.5193V23.9834H56.1602V23.0387C54.9079 22.9871 53.9484 22.7956 53.2818 22.4641C52.6188 22.1289 52.2891 21.663 52.2928 21.0663C52.2891 20.418 52.6832 19.9263 53.4751 19.5912C54.2707 19.256 55.4088 19.0847 56.8895 19.0773C58.3775 19.0847 59.5157 19.256 60.3039 19.5912C61.0958 19.9263 61.4917 20.418 61.4917 21.0663C61.4917 21.663 61.1602 22.1271 60.4972 22.4586C59.8379 22.7901 58.884 22.9816 57.6354 23.0331V23.9834ZM53.8785 21.0663C53.8748 21.3794 54.1289 21.6188 54.6409 21.7845C55.1565 21.9466 55.9061 22.0295 56.8895 22.0331C57.8729 22.0295 58.6206 21.9466 59.1326 21.7845C59.6483 21.6188 59.9079 21.3794 59.9116 21.0663C59.9079 20.7459 59.6501 20.5064 59.1381 20.3481C58.6298 20.186 57.8803 20.1031 56.8895 20.0994C55.9024 20.1031 55.1529 20.186 54.6409 20.3481C54.1289 20.5064 53.8748 20.7459 53.8785 21.0663ZM61.7238 30.1492H52.0497V26.116H61.7238V30.1492ZM60.2818 27.2431H53.5138V29.0221H60.2818V27.2431Z" fill="black"/>
</svg>
