<svg width="256" height="46" viewBox="0 0 256 46" fill="none" xmlns="http://www.w3.org/2000/svg">
<path fill-rule="evenodd" clip-rule="evenodd" d="M30.2881 22.7235V28.313C30.2881 28.5073 30.1308 28.6645 29.9365 28.6645C29.7422 28.6645 29.5849 28.5073 29.5849 28.313V22.7235L25.1393 20.4813C24.9659 20.394 24.8966 20.1836 24.9839 20.0102C25.0712 19.8368 25.2816 19.7674 25.455 19.8547L29.9364 22.1155L34.4179 19.8547C34.5913 19.7674 34.8017 19.8368 34.889 20.0102C34.9763 20.183 34.907 20.394 34.7336 20.4813L30.2881 22.7235ZM23 20.599V25.401C23 26.0198 23.1644 26.5968 23.4676 27.0889C23.7701 27.581 24.2108 27.9864 24.7651 28.2656L28.492 30.1454C28.9608 30.3822 29.4487 30.5 29.9372 30.5C30.4251 30.5 30.9136 30.3822 31.3824 30.1454L35.1093 28.2656C35.663 27.9864 36.1043 27.5804 36.4068 27.0889C36.71 26.5968 36.8744 26.0204 36.8744 25.401V20.599C36.8744 19.9802 36.71 19.4038 36.4068 18.9111C36.1043 18.419 35.6636 18.0136 35.1093 17.7344L31.3824 15.8546C30.9136 15.6178 30.4257 15.5 29.9372 15.5C29.4493 15.5 28.9608 15.6178 28.492 15.8546L24.7651 17.7344C24.2114 18.0136 23.7701 18.4196 23.4676 18.9111C23.1644 19.4032 23 19.9796 23 20.599Z" fill="#9E9E9E"/>
<path d="M51.6409 23.5635H53.7293V18.8895H51.6077V17.6796H62.1602V18.8895H60.0166V23.5635H62.116V24.7514H51.6409V23.5635ZM55.2044 23.5635H58.558V18.8895H55.2044V23.5635ZM50.5193 28.5801V27.3315H63.3315V28.5801H50.5193ZM71.4524 24.9503V27.4144H77.1596V28.6464H64.3475V27.4144H69.9828V24.9503H65.9055V20.4972H74.1265V18.5304H65.8778V17.3204H75.5906V21.6906H67.3806V23.7348H75.9165V24.9503H71.4524ZM88.7004 24.8729V16.326H90.1038V24.8729H88.7004ZM83.9988 21.0994V19.884H85.9491V16.6298H87.3634V24.768H85.9491V21.0994H83.9988ZM84.3524 24.2928C83.7336 24.0387 83.2014 23.6851 82.7557 23.232C82.3137 22.7753 81.9675 22.2505 81.717 21.6575C81.4592 22.3241 81.0946 22.9134 80.6231 23.4254C80.1553 23.9374 79.5918 24.3333 78.9325 24.6133L78.1424 23.442C78.7428 23.1989 79.2548 22.86 79.6783 22.4254C80.1056 21.9908 80.4279 21.5046 80.6452 20.9669C80.8625 20.4254 80.973 19.8766 80.9767 19.3204V18.6354H78.485V17.4309H84.7502V18.6354H82.4076V19.326C82.4076 19.8416 82.5108 20.3481 82.717 20.8453C82.927 21.3389 83.2345 21.7882 83.6397 22.1934C84.0485 22.5985 84.5402 22.9171 85.1148 23.1492L84.3524 24.2928ZM88.6397 26.6575H80.59V25.4586H90.1038V30.326H88.6397V26.6575ZM95.1087 23.779H103.363V24.9724H93.6114V17.4807H103.225V18.6961H95.1087V20.5746H102.915V21.7569H95.1087V23.779ZM92.0037 28.5691V27.3425H104.816V28.5691H92.0037Z" fill="#212121"/>
</svg>
