<svg width="111" height="32" viewBox="0 0 111 32" fill="none" xmlns="http://www.w3.org/2000/svg">
<path d="M37.9589 10.4639V23.2494H35.4394V17.0956H30.2109V23.2494H27.6914V10.4639H30.2109V15.4327H35.4394V10.4639H37.9589Z" fill="white"/>
<path d="M44.9553 18.4668L43.72 18.6272C43.1443 18.702 42.6786 18.8975 42.3228 19.2135C41.967 19.5296 41.7899 19.9251 41.7899 20.4031C41.7899 20.8276 41.9105 21.1666 42.1503 21.4246C42.3869 21.6812 42.671 21.8079 43.0038 21.8079C43.2604 21.8079 43.5108 21.7713 43.7505 21.698C43.9888 21.6247 44.1934 21.4933 44.3629 21.2979C44.5492 21.1009 44.6927 20.8444 44.7981 20.5206C44.9019 20.1985 44.9553 19.7816 44.9553 19.2685V18.4668ZM45.5066 23.2494C45.4333 23.202 45.3508 23.0952 45.2592 22.9226C45.1645 22.7516 45.1187 22.5836 45.1187 22.4111C44.7385 22.8127 44.3048 23.0875 43.8132 23.2341C43.3215 23.3822 42.8389 23.4525 42.3625 23.4525C41.4891 23.4525 40.7653 23.1883 40.1896 22.6569C39.6109 22.1286 39.3223 21.4078 39.3223 20.4947C39.3223 19.6548 39.6261 18.9204 40.2354 18.2912C40.8432 17.6667 41.7212 17.2895 42.8756 17.1689L44.937 16.9322C44.937 16.1504 44.7614 15.619 44.4117 15.3335C44.0636 15.0449 43.6666 14.9044 43.2253 14.9044C42.6862 14.9044 42.1732 15.0235 41.6906 15.2586C41.205 15.4984 40.7607 15.7977 40.356 16.1641L39.9315 14.318C40.4217 13.976 40.9409 13.7194 41.4875 13.5515C42.0312 13.3804 42.6587 13.2949 43.3719 13.2949C43.8132 13.2949 44.2697 13.356 44.7431 13.4766C45.2149 13.5988 45.6425 13.8004 46.0197 14.0783C46.4136 14.3608 46.7312 14.7288 46.9786 15.1853C47.2229 15.6419 47.3481 16.2038 47.3481 16.8757V20.8566C47.3481 21.2338 47.3771 21.6384 47.4398 22.0614C47.5008 22.4905 47.6215 22.8844 47.8093 23.2479H45.5081L45.5066 23.2494Z" fill="white"/>
<path d="M51.5401 13.4762V14.3161C51.8699 13.9877 52.2593 13.7358 52.7067 13.5587C53.1541 13.3815 53.6183 13.293 54.0978 13.293C55.2751 13.293 56.2004 13.6335 56.8861 14.3161C57.5625 14.9971 57.9046 15.9316 57.9046 17.112V23.249H55.4965V17.4586C55.4965 16.715 55.3285 16.1118 54.988 15.6506C54.6505 15.188 54.1772 14.9559 53.5633 14.9559C52.9983 14.9559 52.5234 15.1849 52.1386 15.6415C51.7493 16.0965 51.5584 16.7302 51.5584 17.5319V23.2505H49.1641V13.4762H51.5401Z" fill="white"/>
<path d="M64.8242 18.4668L63.5935 18.6272C63.0147 18.702 62.5505 18.8975 62.1948 19.2135C61.839 19.5296 61.6603 19.9251 61.6603 20.4031C61.6603 20.8276 61.7809 21.1666 62.0191 21.4246C62.2574 21.6812 62.546 21.8079 62.8758 21.8079C63.1339 21.8079 63.3812 21.7713 63.621 21.698C63.8576 21.6247 64.0653 21.4933 64.2379 21.2979C64.4211 21.1009 64.5631 20.8444 64.67 20.5206C64.7738 20.1985 64.8258 19.7816 64.8258 19.2685V18.4668H64.8242ZM65.3785 23.2494C65.3037 23.202 65.2213 23.0952 65.1296 22.9226C65.0395 22.7516 64.9907 22.5836 64.9907 22.4111C64.6105 22.8127 64.1753 23.0875 63.6851 23.2341C63.1949 23.3822 62.7078 23.4525 62.2314 23.4525C61.3595 23.4525 60.6372 23.1883 60.0585 22.6569C59.4843 22.1286 59.1973 21.4078 59.1973 20.4947C59.1973 19.6548 59.4996 18.9204 60.1104 18.2912C60.7136 17.6667 61.5946 17.2895 62.7491 17.1689L64.8074 16.9322C64.8074 16.1504 64.6349 15.619 64.2852 15.3335C63.9355 15.0449 63.54 14.9044 63.0987 14.9044C62.5567 14.9044 62.0482 15.0235 61.5595 15.2586C61.0755 15.4984 60.6326 15.7977 60.228 16.1641L59.8065 14.318C60.2952 13.976 60.8128 13.7194 61.358 13.5515C61.9077 13.3804 62.5353 13.2949 63.2484 13.2949C63.6881 13.2949 64.1463 13.356 64.6166 13.4766C65.0915 13.5988 65.516 13.8004 65.8962 14.0783C66.2886 14.3608 66.6047 14.7288 66.8551 15.1853C67.101 15.6419 67.2201 16.2038 67.2201 16.8757V20.8566C67.2201 21.2338 67.2537 21.6384 67.3132 22.0614C67.3728 22.4905 67.498 22.8844 67.6812 23.2479H65.3831L65.3785 23.2494Z" fill="white"/>
<path d="M74.2269 17.3888V21.6598H75.5493C76.1906 21.6598 76.7189 21.475 77.1434 21.1039C77.5649 20.7329 77.7787 20.2 77.7787 19.5082C77.7787 18.7371 77.5252 18.1935 77.0228 17.8728C76.5189 17.5476 75.9539 17.3888 75.3294 17.3888H74.2254H74.2269ZM74.2269 12.0535V15.7977H75.1645C75.8623 15.7977 76.3906 15.6114 76.7449 15.2403C77.1007 14.8677 77.2809 14.373 77.2809 13.75C77.2809 13.2399 77.1312 12.8277 76.8289 12.5177C76.5296 12.2092 76.1005 12.0535 75.5493 12.0535H74.2269ZM75.7921 23.2494H71.6875V10.4639H76.0654C77.1434 10.4639 78.0398 10.7357 78.7453 11.2823C79.4477 11.8321 79.8004 12.5375 79.8004 13.4033C79.8004 14.2691 79.5897 14.9502 79.156 15.4495C78.7285 15.9504 78.2551 16.2909 77.7405 16.4741C78.4887 16.6558 79.1194 16.9933 79.6355 17.4773C80.1501 17.966 80.4066 18.6409 80.4066 19.5082C80.4066 20.6397 80.0111 21.5483 79.2202 22.2278C78.4307 22.9089 77.287 23.2478 75.7905 23.2478" fill="white"/>
<path d="M87.1969 18.4668L85.9646 18.6272C85.3874 18.702 84.9216 18.8975 84.5674 19.2135C84.2131 19.5296 84.0329 19.9251 84.0329 20.4031C84.0329 20.8276 84.152 21.1666 84.3918 21.4246C84.63 21.6812 84.9171 21.8079 85.2469 21.8079C85.5065 21.8079 85.7538 21.7713 85.9936 21.698C86.2303 21.6247 86.4364 21.4933 86.6105 21.2979C86.7937 21.1009 86.9373 20.8444 87.0426 20.5206C87.148 20.1985 87.1999 19.7816 87.1999 19.2685V18.4668H87.1969ZM87.7496 23.2494C87.6779 23.202 87.5939 23.0952 87.5022 22.9226C87.4091 22.7516 87.3633 22.5836 87.3633 22.4111C86.98 22.8127 86.5464 23.0875 86.0577 23.2341C85.5645 23.3822 85.0804 23.4525 84.604 23.4525C83.7306 23.4525 83.0098 23.1883 82.4311 22.6569C81.8554 22.1286 81.5684 21.4078 81.5684 20.4947C81.5684 19.6548 81.8738 18.9204 82.4815 18.2912C83.0847 17.6667 83.9657 17.2895 85.1201 17.1689L87.177 16.9322C87.177 16.1504 87.0045 15.619 86.6563 15.3335C86.3066 15.0449 85.9111 14.9044 85.4683 14.9044C84.9262 14.9044 84.4177 15.0235 83.9306 15.2586C83.4466 15.4984 83.0037 15.7977 82.5976 16.1641L82.1761 14.318C82.6663 13.976 83.1839 13.7194 83.7275 13.5515C84.2772 13.3804 84.9048 13.2949 85.6179 13.2949C86.0577 13.2949 86.5158 13.356 86.9861 13.4766C87.461 13.5988 87.8855 13.8004 88.2657 14.0783C88.6582 14.3608 88.9743 14.7288 89.2247 15.1853C89.4675 15.6419 89.5896 16.2038 89.5896 16.8757V20.8566C89.5896 21.2338 89.6217 21.6384 89.6813 22.0614C89.7423 22.4905 89.8645 22.8844 90.0493 23.2479H87.7496V23.2494Z" fill="white"/>
<path d="M93.7885 13.4762V14.3161C94.1184 13.9877 94.5078 13.7358 94.9536 13.5587C95.4026 13.3815 95.8653 13.293 96.3463 13.293C97.522 13.293 98.4504 13.6335 99.1345 14.3161C99.814 14.9971 100.153 15.9316 100.153 17.112V23.249H97.7465V17.4586C97.7465 16.715 97.5785 16.1118 97.2395 15.6506C96.899 15.188 96.4257 14.9559 95.8118 14.9559C95.2453 14.9559 94.775 15.1849 94.3886 15.6415C93.9993 16.0965 93.8069 16.7302 93.8069 17.5319V23.2505H91.4141V13.4762H93.7901H93.7885Z" fill="white"/>
<path d="M101.846 23.2497V9.91602H104.235V16.9127L107.366 13.4785H109.923L106.114 17.664L110.4 23.2497H107.66L104.235 18.8138V23.2497H101.846Z" fill="white"/>
<path d="M17.4008 18.2225C17.3397 17.8561 17.2404 17.5018 17.0908 17.1735C16.6235 16.1718 15.973 15.3335 15.0003 14.7669C13.484 13.8905 11.6516 13.895 10.1521 14.799C9.47263 15.2052 8.91375 15.79 8.5549 16.4955C8.43274 16.7337 8.33349 16.9841 8.25256 17.2391C7.85707 18.4852 7.87081 20.1618 8.58239 21.3009C8.81449 21.672 9.15196 21.9911 9.55966 22.1469C9.97195 22.3042 10.4591 22.2859 10.8301 22.0507C11.3065 21.7453 11.3921 21.1605 11.302 20.6413C11.1905 19.9786 11.1035 19.325 11.3493 18.6776C11.4272 18.4714 11.5386 18.2714 11.699 18.1187C11.7967 18.0256 11.9128 17.9507 12.0349 17.8912C12.2945 17.766 12.5877 17.7095 12.8732 17.7553C13.3695 17.8331 13.7757 18.2164 13.9971 18.6654C14.2155 19.1143 14.2765 19.6213 14.301 20.1221C14.4048 22.2935 13.8826 24.5443 13.3252 26.6302C13.2672 26.8455 13.2076 27.0592 13.1466 27.2745C13.0992 27.4395 13.0137 27.6502 13.1206 27.8105C13.1664 27.8777 13.2382 27.9281 13.3145 27.9586C13.6398 28.0884 13.9055 27.8914 14.1223 27.6731C15.4065 26.3919 16.2265 24.7382 16.79 23.0387C17.0007 22.4019 17.1809 21.759 17.3015 21.0994C17.468 20.2 17.5611 19.1693 17.3992 18.221" fill="white"/>
<path d="M26.5868 8.17966C26.5868 7.85441 26.2952 7.63911 25.9852 7.64979C25.6676 7.66048 25.3729 7.82234 25.0827 7.93229C19.4374 10.0624 13.0729 10.4656 7.12529 9.61656C6.10831 9.46997 5.07607 9.26688 4.05298 9.10807C3.4147 9.01034 2.78253 8.86375 2.13661 8.81794C1.58536 8.77519 0.899744 8.75381 0.453862 9.13556C-0.132503 9.63794 -0.0912741 10.5908 0.24161 11.2214C0.641682 11.9788 1.34104 12.5438 2.06942 12.9759C2.77794 13.3943 3.62084 13.8402 4.46222 13.7883C6.73591 13.6432 9.00349 13.4249 11.2619 13.1348C15.1145 12.6385 19.1549 12.1697 22.7724 10.6839C23.9558 10.1999 25.1255 9.59518 26.1379 8.81336C26.3226 8.67441 26.5868 8.44536 26.5868 8.18119" fill="white"/>
<path d="M10.4004 6.25842C10.4004 7.47696 11.3945 8.4634 12.6206 8.4634C13.8468 8.4634 14.8409 7.47543 14.8409 6.25842C14.8409 6.07824 14.7981 5.895 14.7218 5.73161C14.5294 5.33001 14.3156 5.13608 14.3385 4.65508C14.366 4.00916 13.5323 4 13.0803 4C12.5901 4 12.0679 4.06871 11.6235 4.2886C11.2708 4.46573 10.9669 4.73754 10.7531 5.06584C10.5317 5.40483 10.4096 5.8049 10.4004 6.20956V6.25995" fill="white"/>
</svg>
