<svg width="24" height="24" viewBox="0 0 24 24" fill="none" xmlns="http://www.w3.org/2000/svg">
<path d="M14.8233 12L7.29059 4.46728C7.09188 4.26856 6.99508 4.03203 7.00019 3.75768C7.00533 3.48331 7.10725 3.24678 7.30597 3.04808C7.50468 2.84936 7.74122 2.75 8.01557 2.75C8.28992 2.75 8.52645 2.84936 8.72517 3.04808L16.3809 10.7192C16.5617 10.9 16.6957 11.1026 16.7829 11.3269C16.87 11.5513 16.9136 11.7756 16.9136 12C16.9136 12.2243 16.87 12.4487 16.7829 12.6731C16.6957 12.8974 16.5617 13.1 16.3809 13.2807L8.70979 20.9519C8.51108 21.1506 8.2771 21.2474 8.00787 21.2423C7.73865 21.2371 7.50468 21.1352 7.30597 20.9365C7.10725 20.7378 7.00789 20.5013 7.00789 20.2269C7.00789 19.9526 7.10725 19.716 7.30597 19.5173L14.8233 12Z" fill="black"/>
</svg>
