<svg width="24" height="24" viewBox="0 0 24 24" fill="none" xmlns="http://www.w3.org/2000/svg">
<path d="M11.9531 15.8234L19.4858 8.29071C19.6845 8.092 19.921 7.9952 20.1954 8.00031C20.4697 8.00545 20.7063 8.10737 20.905 8.30609C21.1037 8.50481 21.203 8.74134 21.203 9.01569C21.203 9.29004 21.1037 9.52657 20.905 9.72529L13.2338 17.3811C13.053 17.5618 12.8505 17.6958 12.6261 17.783C12.4018 17.8702 12.1774 17.9137 11.9531 17.9137C11.7287 17.9137 11.5044 17.8702 11.28 17.783C11.0556 17.6958 10.8531 17.5618 10.6723 17.3811L3.00116 9.70991C2.80245 9.5112 2.70565 9.27722 2.71076 9.00799C2.7159 8.73877 2.81782 8.50481 3.01654 8.30609C3.21526 8.10737 3.45179 8.00801 3.72614 8.00801C4.00049 8.00801 4.23702 8.10737 4.43574 8.30609L11.9531 15.8234Z" fill="black"/>
</svg>
