<svg width="24" height="24" viewBox="0 0 24 24" fill="none" xmlns="http://www.w3.org/2000/svg">
<path d="M9.73073 12L13.8038 16.0731C13.9423 16.2116 14.0131 16.3856 14.0163 16.5952C14.0195 16.8048 13.9487 16.9821 13.8038 17.1269C13.6589 17.2718 13.4833 17.3443 13.2769 17.3443C13.0705 17.3443 12.8949 17.2718 12.75 17.1269L8.25577 12.6327C8.16217 12.5391 8.09615 12.4404 8.0577 12.3366C8.01923 12.2327 8 12.1205 8 12C8 11.8795 8.01923 11.7673 8.0577 11.6635C8.09615 11.5597 8.16217 11.4609 8.25577 11.3674L12.75 6.87313C12.8885 6.73466 13.0625 6.66383 13.2721 6.66063C13.4817 6.65741 13.6589 6.72824 13.8038 6.87313C13.9487 7.01799 14.0211 7.19363 14.0211 7.40003C14.0211 7.60643 13.9487 7.78206 13.8038 7.92693L9.73073 12Z" fill="black"/>
</svg>
