<svg width="24" height="24" viewBox="0 0 24 24" fill="none" xmlns="http://www.w3.org/2000/svg">
<path d="M11.9605 8.09032L4.42785 15.623C4.22913 15.8217 3.9926 15.9185 3.71825 15.9134C3.44388 15.9083 3.20735 15.8064 3.00865 15.6077C2.80993 15.4089 2.71057 15.1724 2.71057 14.8981C2.71057 14.6237 2.80993 14.3872 3.00865 14.1885L10.6798 6.53267C10.8606 6.35191 11.0631 6.21793 11.2875 6.13075C11.5118 6.04358 11.7362 6 11.9605 6C12.1849 6 12.4093 6.04358 12.6336 6.13075C12.858 6.21793 13.0605 6.35191 13.2413 6.53267L20.9124 14.2038C21.1112 14.4025 21.208 14.6365 21.2028 14.9058C21.1977 15.175 21.0958 15.4089 20.8971 15.6076C20.6984 15.8064 20.4618 15.9057 20.1875 15.9057C19.9131 15.9057 19.6766 15.8064 19.4779 15.6076L11.9605 8.09032Z" fill="black"/>
</svg>
