<svg width="24" height="24" viewBox="0 0 24 24" fill="none" xmlns="http://www.w3.org/2000/svg">
<path d="M12 10.4385L7.92689 14.5116C7.78844 14.65 7.6144 14.7209 7.40479 14.7241C7.19519 14.7273 7.01795 14.6564 6.87309 14.5116C6.7282 14.3667 6.65576 14.1911 6.65576 13.9847C6.65576 13.7782 6.7282 13.6026 6.87309 13.4577L11.3673 8.96351C11.4609 8.86993 11.5596 8.80391 11.6635 8.76544C11.7673 8.72699 11.8795 8.70776 12 8.70776C12.1205 8.70776 12.2327 8.72699 12.3365 8.76544C12.4404 8.80391 12.5391 8.86993 12.6327 8.96351L17.1269 13.4577C17.2654 13.5962 17.3362 13.7702 17.3394 13.9798C17.3426 14.1895 17.2718 14.3667 17.1269 14.5116C16.982 14.6564 16.8064 14.7289 16.6 14.7289C16.3936 14.7289 16.218 14.6564 16.0731 14.5116L12 10.4385Z" fill="black"/>
</svg>
