<svg width="12" height="12" viewBox="0 0 12 12" fill="none" xmlns="http://www.w3.org/2000/svg">
<g clip-path="url(#clip0_37833_9925)">
<path d="M6.00098 0.5C6.14234 0.500288 6.27749 0.559979 6.37207 0.665039C6.75356 1.08892 7.11783 1.51993 7.46582 1.95703C7.69275 2.24208 7.90202 2.52304 8.09473 2.79785L10.7002 0.849609C10.8517 0.736316 11.0545 0.718149 11.2236 0.802734C11.3929 0.887489 11.5 1.06073 11.5 1.25V6C11.5 6.75674 11.3561 7.4748 11.0654 8.14844C10.7789 8.81226 10.3871 9.39417 9.89062 9.89062C9.39417 10.3871 8.81226 10.7789 8.14844 11.0654C7.4748 11.3561 6.75674 11.5 6 11.5C5.24326 11.5 4.5252 11.3561 3.85156 11.0654C3.18774 10.7789 2.60583 10.3871 2.10938 9.89062C1.61292 9.39417 1.22105 8.81226 0.93457 8.14844C0.643893 7.4748 0.5 6.75674 0.5 6V1.25C0.5 1.06061 0.60698 0.887428 0.776367 0.802734C0.9458 0.718088 1.14834 0.736891 1.2998 0.850586L3.89551 2.79883C4.08314 2.53384 4.28467 2.26405 4.50098 1.99023C4.83812 1.56347 5.21497 1.12132 5.62988 0.664062L5.70801 0.59375C5.7926 0.532952 5.89505 0.499793 6.00098 0.5Z" fill="#FF9A28" stroke="white" stroke-linejoin="round"/>
</g>
<defs>
<clipPath id="clip0_37833_9925">
<rect width="12" height="12" fill="white"/>
</clipPath>
</defs>
</svg>
