<svg width="24" height="24" viewBox="0 0 24 24" fill="none" xmlns="http://www.w3.org/2000/svg">
<path fill-rule="evenodd" clip-rule="evenodd" d="M19 4C20.66 4 22 5.34 22 7V8.12988C22 8.60985 21.6602 8.98033 21.2002 9.11035C19.9302 9.46035 19 10.62 19 12C19 13.38 19.9302 14.5396 21.2002 14.8896C21.6602 15.0197 22 15.4001 22 15.8701V17C22 18.66 20.66 20 19 20H5C3.34 20 2 18.66 2 17V15.8701C2 15.3901 2.33985 15.0197 2.7998 14.8896C4.0698 14.5396 5 13.38 5 12C5 10.62 4.0698 9.46035 2.7998 9.11035C2.33985 8.98033 2 8.59985 2 8.12988V7C2 5.34 3.34 4 5 4H19Z" fill="black"/>
</svg>
