<svg width="24" height="24" viewBox="0 0 24 24" fill="none" xmlns="http://www.w3.org/2000/svg">
<path d="M15.7731 12.973L14.6501 11.85C14.8001 11.0218 14.5638 10.2772 13.9414 9.61635C13.319 8.95545 12.5552 8.7 11.6501 8.85L10.527 7.72695C10.7526 7.62566 10.9841 7.54971 11.2212 7.49907C11.4584 7.44842 11.718 7.4231 12.0001 7.4231C13.1347 7.4231 14.0978 7.81893 14.8895 8.6106C15.6811 9.40226 16.077 10.3654 16.077 11.5C16.077 11.782 16.0516 12.0449 16.001 12.2884C15.9504 12.532 15.8744 12.7602 15.7731 12.973ZM18.9539 16.0846L17.8501 15.05C18.4834 14.5667 19.0459 14.0375 19.5376 13.4625C20.0292 12.8875 20.4501 12.2333 20.8001 11.5C19.9667 9.81666 18.7709 8.47916 17.2126 7.4875C15.6542 6.49583 13.9167 6 12.0001 6C11.5167 6 11.0417 6.03333 10.5751 6.1C10.1084 6.16666 9.65006 6.26666 9.20006 6.4L8.03471 5.23465C8.66676 4.98336 9.31227 4.79811 9.97124 4.67887C10.6302 4.55964 11.3065 4.50002 12.0001 4.50002C14.2231 4.50002 16.2462 5.08912 18.0693 6.26732C19.8923 7.44552 21.266 8.98846 22.1904 10.8961C22.234 10.9731 22.2641 11.0644 22.2808 11.1702C22.2975 11.276 22.3058 11.3859 22.3058 11.5C22.3058 11.6141 22.2949 11.724 22.2731 11.8298C22.2513 11.9356 22.2237 12.0269 22.1904 12.1038C21.8199 12.8833 21.3632 13.6073 20.8202 14.2759C20.2773 14.9445 19.6552 15.5474 18.9539 16.0846ZM19.2347 21.3423L15.7155 17.8538C15.2026 18.0435 14.6344 18.1987 14.0107 18.3192C13.3869 18.4397 12.7167 18.5 12.0001 18.5C9.76418 18.5 7.7395 17.9109 5.92604 16.7327C4.11259 15.5545 2.74048 14.0115 1.80971 12.1038C1.76613 12.0269 1.736 11.9356 1.71934 11.8298C1.70267 11.724 1.69434 11.6141 1.69434 11.5C1.69434 11.3859 1.70267 11.2785 1.71934 11.1779C1.736 11.0772 1.76613 10.9885 1.80971 10.9115C2.18536 10.1423 2.64049 9.43141 3.17511 8.77885C3.70973 8.12628 4.28473 7.54616 4.90011 7.03847L2.64241 4.76537C2.50394 4.62691 2.43311 4.45544 2.42991 4.25097C2.42671 4.04649 2.50267 3.86668 2.65779 3.71155C2.80265 3.56668 2.97829 3.49425 3.18471 3.49425C3.39111 3.49425 3.56674 3.56668 3.71161 3.71155L20.2885 20.2884C20.427 20.4269 20.5004 20.5984 20.5087 20.8028C20.517 21.0073 20.4436 21.1871 20.2885 21.3423C20.1436 21.4871 19.968 21.5596 19.7616 21.5596C19.5552 21.5596 19.3796 21.4871 19.2347 21.3423ZM5.95394 8.09227C5.42574 8.51279 4.91195 9.01825 4.41259 9.60865C3.91322 10.199 3.50904 10.8295 3.20006 11.5C4.03339 13.1833 5.22923 14.5208 6.78756 15.5125C8.34589 16.5042 10.0834 17 12.0001 17C12.4552 17 12.9084 16.9615 13.3597 16.8846C13.811 16.8077 14.1937 16.7282 14.5078 16.6461L13.2424 15.35C13.0719 15.4192 12.8744 15.4743 12.6501 15.5153C12.4257 15.5564 12.209 15.5769 12.0001 15.5769C10.8655 15.5769 9.90233 15.1811 9.11066 14.3894C8.31899 13.5977 7.92316 12.6346 7.92316 11.5C7.92316 11.2974 7.94368 11.0856 7.98471 10.8644C8.02574 10.6433 8.08087 10.441 8.15009 10.2577L5.95394 8.09227Z" fill="black"/>
</svg>
