<svg width="24" height="24" viewBox="0 0 24 24" fill="none" xmlns="http://www.w3.org/2000/svg">
<path d="M12.0023 15.5769C13.1354 15.5769 14.0978 15.1803 14.8895 14.3872C15.6811 13.594 16.077 12.6308 16.077 11.4977C16.077 10.3646 15.6804 9.40227 14.8872 8.61061C14.094 7.81894 13.1309 7.42311 11.9978 7.42311C10.8647 7.42311 9.90233 7.81969 9.11066 8.61286C8.31899 9.40604 7.92316 10.3692 7.92316 11.5023C7.92316 12.6354 8.31974 13.5977 9.11291 14.3894C9.90609 15.1811 10.8692 15.5769 12.0023 15.5769ZM12.0001 14.2C11.2501 14.2 10.6126 13.9375 10.0876 13.4125C9.56256 12.8875 9.30006 12.25 9.30006 11.5C9.30006 10.75 9.56256 10.1125 10.0876 9.58751C10.6126 9.06251 11.2501 8.80001 12.0001 8.80001C12.7501 8.80001 13.3876 9.06251 13.9126 9.58751C14.4376 10.1125 14.7001 10.75 14.7001 11.5C14.7001 12.25 14.4376 12.8875 13.9126 13.4125C13.3876 13.9375 12.7501 14.2 12.0001 14.2ZM12.0001 18.5C9.81161 18.5 7.80553 17.9243 5.98181 16.7731C4.15811 15.6218 2.76741 14.0654 1.80971 12.1039C1.76613 12.0269 1.736 11.9354 1.71934 11.8292C1.70267 11.723 1.69434 11.6133 1.69434 11.5C1.69434 11.3867 1.70267 11.277 1.71934 11.1708C1.736 11.0646 1.76613 10.9731 1.80971 10.8962C2.76741 8.93464 4.15811 7.37824 5.98181 6.22696C7.80553 5.07567 9.81161 4.50003 12.0001 4.50003C14.1885 4.50003 16.1946 5.07567 18.0183 6.22696C19.842 7.37824 21.2327 8.93464 22.1904 10.8962C22.234 10.9731 22.2641 11.0646 22.2808 11.1708C22.2975 11.277 22.3058 11.3867 22.3058 11.5C22.3058 11.6133 22.2975 11.723 22.2808 11.8292C22.2641 11.9354 22.234 12.0269 22.1904 12.1039C21.2327 14.0654 19.842 15.6218 18.0183 16.7731C16.1946 17.9243 14.1885 18.5 12.0001 18.5ZM12.0001 17C13.8834 17 15.6126 16.5042 17.1876 15.5125C18.7626 14.5208 19.9667 13.1833 20.8001 11.5C19.9667 9.81667 18.7626 8.47917 17.1876 7.48751C15.6126 6.49584 13.8834 6.00001 12.0001 6.00001C10.1167 6.00001 8.38756 6.49584 6.81256 7.48751C5.23756 8.47917 4.03339 9.81667 3.20006 11.5C4.03339 13.1833 5.23756 14.5208 6.81256 15.5125C8.38756 16.5042 10.1167 17 12.0001 17Z" fill="black"/>
</svg>
